<?xml version="1.0" encoding="iso-8859-1"?>
<!-- Uploaded to: SVG Repo, www.svgrepo.com, Generator: SVG Repo Mixer Tools -->
<svg version="1.1" id="Layer_1" xmlns="http://www.w3.org/2000/svg" xmlns:xlink="http://www.w3.org/1999/xlink" 
	 viewBox="0 0 512.001 512.001" xml:space="preserve">
<rect x="326.765" y="8.059" transform="matrix(-0.7071 -0.7071 0.7071 -0.7071 496.4306 518.4547)" style="fill:#333236;" width="57.653" height="296.709"/>
<rect x="351.79" y="18.419" transform="matrix(-0.7071 -0.7071 0.7071 -0.7071 506.8022 543.4704)" style="fill:#272629;" width="28.334" height="296.709"/>
<path style="fill:#F1B559;" d="M503.929,74.546c4.845-4.043,7.766-9.936,8.049-16.24s-2.096-12.435-6.558-16.897L470.592,6.581
	c-4.462-4.462-10.594-6.842-16.897-6.558c-6.304,0.284-12.197,3.204-16.24,8.049l-43.437,52.046
	c-3.596,4.308-3.311,10.648,0.658,14.615l42.59,42.59c3.968,3.968,10.307,4.252,14.615,0.658L503.929,74.546z"/>
<rect x="378.723" y="92.544" transform="matrix(-0.7071 -0.7071 0.7071 -0.7071 621.7312 466.622)" style="fill:#272629;" width="57.567" height="24.004"/>
<path style="fill:#EDA637;" d="M511.978,58.306c0.284-6.304-2.096-12.435-6.558-16.898l-17.414-17.414l-72.035,72.034l21.296,21.295
	c3.968,3.968,10.307,4.254,14.615,0.658l52.046-43.436C508.773,70.503,511.695,64.61,511.978,58.306z"/>
<path style="fill:#A56200;" d="M230.152,420.922c0.973-17.162,12.273-32.034,28.547-37.57c8.487-2.887,16.172-7.51,22.597-13.934
	c28.943-28.943,21.354-83.457-16.95-121.762s-92.819-45.893-121.762-16.95c-6.424,6.424-11.048,14.109-13.934,22.597
	c-5.536,16.276-20.406,27.574-37.57,28.547c-25.401,1.442-49.525,11.256-67.98,29.711C-20.376,355.035,2.328,411.729,51.3,460.7
	s105.665,71.676,149.141,28.2C218.896,470.446,228.711,446.322,230.152,420.922z"/>
<path style="fill:#854F00;" d="M230.152,420.922c0.973-17.162,12.273-32.034,28.547-37.57c8.487-2.887,16.172-7.51,22.597-13.934
	c28.943-28.943,21.354-83.457-16.95-121.762l0,0L51.3,460.701l0,0c48.971,48.971,105.665,71.676,149.141,28.2
	C218.896,470.446,228.711,446.322,230.152,420.922z"/>
<g>
	<circle style="fill:#333236;" cx="190.486" cy="321.508" r="41.903"/>
	<path style="fill:#333236;" d="M125.392,433.048L78.954,386.61c-6.623-6.623-6.623-17.362,0-23.985
		c6.623-6.623,17.362-6.623,23.985,0l46.438,46.438c6.623,6.624,6.623,17.362,0,23.985
		C142.753,439.67,132.014,439.67,125.392,433.048z"/>
</g>
</svg>